g Sosig_Whole_0
v 0.10715103 -0.17353821 -0.10715103
v 0.10715103 0.17353821 -0.10715103
v 0.05810547 -0.17353821 -0.1399231
v 0.05810547 0.17353821 -0.1399231
v 0.1399231 0.17353821 -0.05810547
v 0.1399231 -0.17353821 -0.05810547
v 0.15143204 0.17353821 -0.00025302172
v 0.15143204 -0.17353821 -0.00025302172
v 0.1399231 0.17353821 0.05760002
v 0.1399231 -0.17353821 0.05760002
v 0.10715103 0.17353821 0.10664749
v 0.10715103 -0.17353821 0.10664749
v 0.05810547 0.17353821 0.13941574
v 0.05810547 -0.17353821 0.13941574
v 0.00025295466 0.17353821 0.15092468
v 0.00025295466 -0.17353821 0.15092468
v 0.00025295466 -0.17353821 -0.15143204
v 0.00025295466 0.17353821 -0.15143204
v -0.05760002 -0.17353821 -0.1399231
v -0.05760002 0.17353821 -0.1399231
v -0.10664749 -0.17353821 -0.10715103
v -0.10664749 0.17353821 -0.10715103
v -0.13941574 -0.17353821 -0.05810547
v -0.13941574 0.17353821 -0.05810547
v -0.15092468 -0.17353821 -0.00025302172
v -0.15092468 0.17353821 -0.00025302172
v -0.13941574 -0.17353821 0.05760002
v -0.13941574 0.17353821 0.05760002
v -0.10664749 -0.17353821 0.10664749
v -0.10664749 0.17353821 0.10664749
v -0.05760002 -0.17353821 0.13941574
v -0.05760002 0.17353821 0.13941574
v 0.00025295466 -0.17353821 0.15092468
v 0.00025295466 0.17353821 0.15092468
v -0.09957504 -0.22283936 -0.1000824
v -0.05377388 -0.22283936 -0.13068771
v 0.00025295466 -0.22283936 -0.14143372
v 0.054281235 -0.22283936 -0.13068771
v 0.00025295466 -0.26462555 -0.112960815
v 0.043384552 -0.26462555 -0.10438156
v -0.042879105 -0.26462555 -0.10438156
v -0.079444885 -0.26462555 -0.07995033
v -0.10387802 -0.26462555 -0.043384552
v -0.13018036 -0.22283936 -0.054281235
v -0.14092636 -0.22283936 -0.00025302172
v -0.112457275 -0.26462555 -0.00025302172
v -0.13018036 -0.22283936 0.05377388
v -0.10387802 -0.26462555 0.042879105
v -0.09957504 -0.22283936 0.09957504
v -0.079444885 -0.26462555 0.079444885
v -0.05377388 -0.22283936 0.13018036
v -0.042879105 -0.26462555 0.10387802
v 0.00025295466 -0.22283936 0.14092636
v 0.00025295466 -0.26462555 0.112457275
v 0.00025295466 -0.26462555 -0.112960815
v 0.00025295466 -0.29254913 -0.070352554
v 0.043384552 -0.26462555 -0.10438156
v 0.027079582 -0.29254913 -0.0650177
v -0.026573181 -0.29254913 -0.0650177
v -0.042879105 -0.26462555 -0.10438156
v -0.0493145 -0.29254913 -0.049821854
v -0.079444885 -0.26462555 -0.07995033
v -0.064510345 -0.29254913 -0.027079582
v -0.10387802 -0.26462555 -0.043384552
v -0.06984711 -0.29254913 -0.00025302172
v -0.112457275 -0.26462555 -0.00025302172
v -0.064510345 -0.29254913 0.026573181
v -0.10387802 -0.26462555 0.042879105
v -0.0493145 -0.29254913 0.0493145
v -0.079444885 -0.26462555 0.079444885
v -0.026573181 -0.29254913 0.064510345
v -0.042879105 -0.26462555 0.10387802
v 0.00025295466 -0.29254913 0.06984711
v 0.00025295466 -0.26462555 0.112457275
v 0.027079582 -0.29254913 0.064510345
v 0.043384552 -0.26462555 0.10387802
v 0.049821854 -0.29254913 0.0493145
v 0.07995033 -0.26462555 0.079444885
v 0.0650177 -0.29254913 0.026573181
v 0.10438156 -0.26462555 0.042879105
v 0.070352554 -0.29254913 -0.00025302172
v 0.112960815 -0.26462555 -0.00025302172
v 0.0650177 -0.29254913 -0.027079582
v 0.10438156 -0.26462555 -0.043384552
v 0.049821854 -0.29254913 -0.049821854
v 0.07995033 -0.26462555 -0.07995033
v 0.00025295466 -0.3023529 -0.00025302172
v 0.054281235 0.22283936 -0.13068771
v 0.00025295466 0.22283936 -0.14143372
v 0.043384552 0.26462555 -0.10438156
v 0.00025295466 0.26462555 -0.112960815
v -0.05377388 0.22283936 -0.13068771
v -0.042879105 0.26462555 -0.10438156
v -0.09957504 0.22283936 -0.1000824
v -0.079444885 0.26462555 -0.07995033
v -0.13018036 0.22283936 -0.054281235
v -0.10387802 0.26462555 -0.043384552
v -0.14092636 0.22283936 -0.00025302172
v -0.112457275 0.26462555 -0.00025302172
v -0.13018036 0.22283936 0.05377388
v -0.10387802 0.26462555 0.042879105
v -0.09957504 0.22283936 0.09957504
v -0.079444885 0.26462555 0.079444885
v -0.05377388 0.22283936 0.13018036
v -0.042879105 0.26462555 0.10387802
v 0.00025295466 0.22283936 0.14092636
v 0.00025295466 0.26462555 0.112457275
v 0.043384552 0.26462555 -0.10438156
v 0.027079582 0.29254913 -0.0650177
v 0.00025295466 0.26462555 -0.112960815
v 0.00025295466 0.29254913 -0.070352554
v -0.042879105 0.26462555 -0.10438156
v -0.026573181 0.29254913 -0.0650177
v -0.079444885 0.26462555 -0.07995033
v -0.0493145 0.29254913 -0.049821854
v -0.10387802 0.26462555 -0.043384552
v -0.064510345 0.29254913 -0.027079582
v -0.112457275 0.26462555 -0.00025302172
v -0.06984711 0.29254913 -0.00025302172
v -0.10387802 0.26462555 0.042879105
v -0.064510345 0.29254913 0.026573181
v -0.079444885 0.26462555 0.079444885
v -0.0493145 0.29254913 0.0493145
v -0.042879105 0.26462555 0.10387802
v -0.026573181 0.29254913 0.064510345
v 0.00025295466 0.26462555 0.112457275
v 0.00025295466 0.29254913 0.06984711
v 0.043384552 0.26462555 0.10387802
v 0.027079582 0.29254913 0.064510345
v 0.07995033 0.26462555 0.079444885
v 0.049821854 0.29254913 0.0493145
v 0.10438156 0.26462555 0.042879105
v 0.0650177 0.29254913 0.026573181
v 0.112960815 0.26462555 -0.00025302172
v 0.070352554 0.29254913 -0.00025302172
v 0.10438156 0.26462555 -0.043384552
v 0.0650177 0.29254913 -0.027079582
v 0.07995033 0.26462555 -0.07995033
v 0.049821854 0.29254913 -0.049821854
v 0.00025295466 0.3023529 -0.00025302172
v 0.054281235 -0.22283936 0.13018036
v 0.00025295466 -0.22283936 0.14092636
v 0.043384552 -0.26462555 0.10387802
v 0.00025295466 -0.26462555 0.112457275
v 0.1000824 -0.22283936 0.09957504
v 0.07995033 -0.26462555 0.079444885
v 0.13068771 -0.22283936 0.05377388
v 0.10438156 -0.26462555 0.042879105
v 0.14143372 -0.22283936 -0.00025302172
v 0.112960815 -0.26462555 -0.00025302172
v 0.13068771 -0.22283936 -0.054281235
v 0.10438156 -0.26462555 -0.043384552
v 0.1000824 -0.22283936 -0.1000824
v 0.07995033 -0.26462555 -0.07995033
v 0.00025295466 0.22283936 0.14092636
v 0.054281235 0.22283936 0.13018036
v 0.00025295466 0.26462555 0.112457275
v 0.043384552 0.26462555 0.10387802
v 0.1000824 0.22283936 0.09957504
v 0.07995033 0.26462555 0.079444885
v 0.13068771 0.22283936 0.05377388
v 0.10438156 0.26462555 0.042879105
v 0.14143372 0.22283936 -0.00025302172
v 0.112960815 0.26462555 -0.00025302172
v 0.13068771 0.22283936 -0.054281235
v 0.10438156 0.26462555 -0.043384552
v 0.1000824 0.22283936 -0.1000824
v 0.07995033 0.26462555 -0.07995033
vt 0.04596171 0.8777625
vt 0.15769395 0.8776855
vt 0.045923207 0.8593413
vt 0.15770635 0.8592682
vt 0.15767464 0.8961155
vt 0.046007726 0.89619786
vt 0.15767184 0.91457325
vt 0.04603878 0.9146599
vt 0.15773794 0.93308765
vt 0.04600391 0.9331694
vt 0.15797523 0.95170575
vt 0.045804653 0.9517587
vt 0.15851077 0.97048646
vt 0.04530171 0.9704762
vt 0.15923241 0.9894367
vt 0.044502053 0.989412
vt 0.045900974 0.840927
vt 0.15770301 0.84085506
vt 0.04589722 0.8225139
vt 0.15768102 0.8224406
vt 0.045909796 0.8040966
vt 0.15764257 0.80401963
vt 0.045929465 0.78566664
vt 0.15759674 0.785584
vt 0.045932505 0.7672086
vt 0.15756586 0.76712155
vt 0.045866165 0.7486942
vt 0.15760073 0.7486115
vt 0.04562858 0.7300761
vt 0.15779993 0.73002166
vt 0.045092557 0.7112954
vt 0.15830252 0.7113038
vt 0.044370566 0.6923452
vt 0.15910175 0.69236785
vt 0.029694352 0.8041799
vt 0.02967218 0.8225629
vt 0.029674564 0.8409599
vt 0.029703055 0.85935664
vt 0.013394747 0.8411726
vt 0.0134252645 0.85957444
vt 0.0133922435 0.8227704
vt 0.013415847 0.8043943
vt 0.013461385 0.7860852
vt 0.02973679 0.7858324
vt 0.029784236 0.7675499
vt 0.013514314 0.7679174
vt 0.029794369 0.7493791
vt 0.0135306455 0.75003815
vt 0.02963439 0.7313674
vt 0.013371859 0.73272574
vt 0.028893862 0.7135114
vt 0.012612853 0.7164302
vt 0.026456866 0.6957878
vt 0.010000024 0.70166177
vt 0.27697706 0.8666842
vt 0.26100332 0.86354995
vt 0.27115363 0.8806219
vt 0.25759226 0.87160957
vt 0.26105654 0.8547976
vt 0.27701873 0.8515817
vt 0.25777024 0.8466866
vt 0.2712816 0.83760786
vt 0.25161886 0.84046066
vt 0.26063126 0.8268995
vt 0.24355958 0.83704984
vt 0.24669336 0.82107615
vt 0.23480742 0.8369974
vt 0.23159085 0.82103574
vt 0.22669683 0.84028447
vt 0.2176175 0.82677376
vt 0.22047089 0.8464365
vt 0.20690964 0.83742416
vt 0.21705954 0.8544961
vt 0.20108579 0.851362
vt 0.21700703 0.8632487
vt 0.2010449 0.86646485
vt 0.22029363 0.8713598
vt 0.2067822 0.88043845
vt 0.22644489 0.87758577
vt 0.2174323 0.8911468
vt 0.23450391 0.8809968
vt 0.23137002 0.8969704
vt 0.24325602 0.88104904
vt 0.24647276 0.8970108
vt 0.25136662 0.87776184
vt 0.26044607 0.89127266
vt 0.23903178 0.8590232
vt 0.17393145 0.8592192
vt 0.17392936 0.84082216
vt 0.19021139 0.8590119
vt 0.19020924 0.8406098
vt 0.17390117 0.8224253
vt 0.19017908 0.82220787
vt 0.17384669 0.8040437
vt 0.19011965 0.80383354
vt 0.17376903 0.78569776
vt 0.19003114 0.78553027
vt 0.17368183 0.76741827
vt 0.18992028 0.7673805
vt 0.17363045 0.749246
vt 0.18981972 0.74954534
vt 0.17375436 0.73121923
vt 0.18985799 0.7323199
vt 0.1744571 0.7133674
vt 0.19047901 0.71616477
vt 0.1768823 0.69590074
vt 0.19293466 0.7016622
vt 0.23114112 0.9140392
vt 0.2343724 0.92999846
vt 0.24624382 0.914066
vt 0.24312441 0.9300428
vt 0.2601866 0.91987735
vt 0.25118655 0.9334467
vt 0.27084684 0.9305753
vt 0.2573443 0.9396668
vt 0.27659774 0.94454354
vt 0.26063848 0.9477746
vt 0.27657074 0.9596465
vt 0.260594 0.95652705
vt 0.27075952 0.9735897
vt 0.25718987 0.9645894
vt 0.2600608 0.9842498
vt 0.2509694 0.9707466
vt 0.24609248 0.98999995
vt 0.24286173 0.97404057
vt 0.23098984 0.98997253
vt 0.23410955 0.9739956
vt 0.21704677 0.9841617
vt 0.22604725 0.9705921
vt 0.20638666 0.97346336
vt 0.21988973 0.96437186
vt 0.20063642 0.9594949
vt 0.21659568 0.95626396
vt 0.20066372 0.944392
vt 0.2166399 0.94751173
vt 0.20647499 0.93044907
vt 0.22004429 0.9394497
vt 0.21717349 0.9197895
vt 0.22626504 0.93329304
vt 0.23861697 0.9520194
vt 0.029147062 0.9684127
vt 0.026721511 0.98587924
vt 0.013125215 0.965615
vt 0.010669265 0.9801174
vt 0.029850159 0.95056134
vt 0.013746414 0.94946045
vt 0.029974137 0.9325351
vt 0.013784919 0.93223566
vt 0.029922877 0.91436327
vt 0.0136844255 0.9144011
vt 0.029835496 0.8960842
vt 0.013573322 0.89625186
vt 0.029757652 0.8777383
vt 0.01348475 0.8779487
vt 0.17714617 0.98599476
vt 0.17470947 0.9682711
vt 0.19360325 0.98012084
vt 0.19099048 0.9653525
vt 0.17396936 0.9504151
vt 0.19023183 0.94905704
vt 0.17380968 0.932403
vt 0.1900734 0.9317443
vt 0.17381987 0.9142323
vt 0.19008979 0.91386485
vt 0.17386726 0.8959499
vt 0.19014254 0.89569694
vt 0.17390916 0.87760174
vt 0.19018766 0.87738746
vn 0.70690393 -0.023949077 -0.70690405
vn 0.70690393 0.023949077 -0.70690405
vn 0.38257384 -0.02394907 -0.92361456
vn 0.3825738 0.02394907 -0.92361456
vn 0.9236143 0.023949048 -0.38257432
vn 0.9236143 -0.023949048 -0.38257432
vn 0.9997131 0.023949025 0
vn 0.9997131 -0.023949025 0
vn 0.9236142 0.023949048 0.38257432
vn 0.9236142 -0.02394905 0.38257432
vn 0.70690376 0.02394907 0.7069041
vn 0.70690376 -0.02394907 0.7069041
vn 0.3825738 0.02394907 0.92361456
vn 0.3825738 -0.023949075 0.92361456
vn -0 0.02394906 0.9997131
vn -0 -0.023949059 0.9997131
vn -0 -0.02394906 -0.9997131
vn -0 0.023949059 -0.9997131
vn -0.38257384 -0.023949046 -0.92361456
vn -0.3825739 0.023949051 -0.92361456
vn -0.70690393 -0.023949036 -0.70690393
vn -0.70690393 0.02394904 -0.70690393
vn -0.9236146 -0.023949077 -0.38257337
vn -0.9236146 0.02394908 -0.38257334
vn -0.9997131 -0.02394909 0
vn -0.9997131 0.02394909 0
vn -0.9236146 -0.023949083 0.38257337
vn -0.9236146 0.023949077 0.38257334
vn -0.7069039 -0.02394904 0.70690393
vn -0.70690393 0.023949046 0.70690405
vn -0.3825739 -0.02394905 0.92361456
vn -0.38257384 0.023949046 0.92361456
vn -0 -0.023949059 0.9997131
vn -0 0.02394906 0.9997131
vn -0.65778464 -0.36693138 -0.65778476
vn -0.35599074 -0.36693153 -0.8594369
vn -0 -0.36693144 -0.93024796
vn 0.35599056 -0.3669314 -0.859437
vn -0 -0.6785503 -0.73455393
vn 0.2811018 -0.6785503 -0.67863935
vn -0.2811016 -0.6785503 -0.67863935
vn -0.5194079 -0.6785502 -0.5194084
vn -0.67863965 -0.67855 -0.2811014
vn -0.8594373 -0.36693114 -0.35599023
vn -0.9302482 -0.36693108 0
vn -0.73455423 -0.67855 0
vn -0.8594373 -0.36693117 0.35599026
vn -0.67863965 -0.67855 0.28110144
vn -0.65778446 -0.3669314 0.65778494
vn -0.5194078 -0.6785502 0.51940846
vn -0.3559908 -0.36693147 0.8594369
vn -0.2811016 -0.6785503 0.67863935
vn -0 -0.36693138 0.93024796
vn -0 -0.6785503 0.73455393
vn -0 -0.6785503 -0.73455393
vn -0 -0.9406047 -0.3395037
vn 0.2811018 -0.6785503 -0.67863935
vn 0.13097173 -0.93961054 -0.31619376
vn -0.13097204 -0.9396104 -0.3161939
vn -0.2811016 -0.6785503 -0.67863935
vn -0.24006519 -0.9406047 -0.24006553
vn -0.5194079 -0.6785502 -0.5194084
vn -0.31619424 -0.9396103 -0.13097166
vn -0.67863965 -0.67855 -0.2811014
vn -0.33950302 -0.940605 0
vn -0.73455423 -0.67855 0
vn -0.3161942 -0.9396103 0.13097169
vn -0.67863965 -0.67855 0.28110144
vn -0.24006513 -0.9406047 0.24006547
vn -0.5194078 -0.6785502 0.51940846
vn -0.13097201 -0.9396104 0.31619376
vn -0.2811016 -0.6785503 0.67863935
vn -0 -0.9406047 0.3395038
vn -0 -0.6785503 0.73455393
vn 0.13097173 -0.93961054 0.3161937
vn 0.28110182 -0.67855024 0.67863935
vn 0.24006554 -0.94060457 0.24006541
vn 0.5194081 -0.67855024 0.5194081
vn 0.31619376 -0.93961054 0.13097179
vn 0.6786392 -0.6785503 0.28110203
vn 0.3395035 -0.9406048 0
vn 0.73455375 -0.6785505 0
vn 0.31619373 -0.93961054 -0.13097171
vn 0.6786392 -0.67855036 -0.281102
vn 0.2400656 -0.94060457 -0.24006538
vn 0.5194082 -0.67855024 -0.51940805
vn -0 -1 0
vn 0.35599056 0.3669314 -0.859437
vn -0 0.36693144 -0.93024796
vn 0.28110176 0.67855024 -0.67863935
vn -0 0.6785503 -0.73455393
vn -0.3559908 0.36693153 -0.8594369
vn -0.28110164 0.6785503 -0.6786395
vn -0.65778464 0.36693138 -0.65778476
vn -0.5194079 0.6785502 -0.5194084
vn -0.8594373 0.3669311 -0.35599017
vn -0.67863965 0.67855 -0.28110138
vn -0.9302482 0.36693108 0
vn -0.73455423 0.6785499 0
vn -0.8594373 0.36693117 0.3559902
vn -0.67863965 0.67855 0.2811014
vn -0.6577845 0.3669314 0.6577849
vn -0.51940775 0.6785502 0.5194084
vn -0.3559908 0.36693153 0.8594369
vn -0.2811016 0.67855036 0.67863935
vn -0 0.3669314 0.93024796
vn -0 0.6785503 0.734554
vn 0.28110176 0.67855024 -0.67863935
vn 0.13097171 0.93961054 -0.31619373
vn -0 0.6785503 -0.73455393
vn -0 0.9406047 -0.3395038
vn -0.28110164 0.6785503 -0.6786395
vn -0.130972 0.9396104 -0.3161939
vn -0.5194079 0.6785502 -0.5194084
vn -0.24006519 0.9406047 -0.24006547
vn -0.67863965 0.67855 -0.28110138
vn -0.3161942 0.9396104 -0.13097166
vn -0.73455423 0.6785499 0
vn -0.33950302 0.940605 0
vn -0.67863965 0.67855 0.2811014
vn -0.31619424 0.9396103 0.13097169
vn -0.51940775 0.6785502 0.5194084
vn -0.2400651 0.9406047 0.24006553
vn -0.2811016 0.67855036 0.67863935
vn -0.13097204 0.9396104 0.3161939
vn -0 0.6785503 0.734554
vn -0 0.9406047 0.33950382
vn 0.28110176 0.6785502 0.67863935
vn 0.13097177 0.93961054 0.3161938
vn 0.51940805 0.67855024 0.5194081
vn 0.24006553 0.94060457 0.24006541
vn 0.6786392 0.67855036 0.28110203
vn 0.3161937 0.93961054 0.13097176
vn 0.73455375 0.6785505 0
vn 0.3395035 0.9406048 0
vn 0.6786392 0.67855024 -0.28110197
vn 0.31619376 0.93961054 -0.13097177
vn 0.5194082 0.6785502 -0.51940805
vn 0.2400656 0.94060457 -0.24006538
vn -0 1 0
vn 0.35599053 -0.36693138 0.859437
vn -0 -0.36693138 0.93024796
vn 0.28110182 -0.67855024 0.67863935
vn -0 -0.6785503 0.73455393
vn 0.6577845 -0.36693138 0.65778476
vn 0.5194081 -0.67855024 0.5194081
vn 0.85943675 -0.36693144 0.35599118
vn 0.6786392 -0.6785503 0.28110203
vn 0.93024796 -0.3669314 0
vn 0.73455375 -0.6785505 0
vn 0.85943675 -0.36693153 -0.35599118
vn 0.6786392 -0.67855036 -0.281102
vn 0.6577846 -0.36693147 -0.65778476
vn 0.5194082 -0.67855024 -0.51940805
vn -0 0.3669314 0.93024796
vn 0.3559906 0.36693147 0.859437
vn -0 0.6785503 0.734554
vn 0.28110176 0.6785502 0.67863935
vn 0.6577845 0.36693147 0.6577848
vn 0.51940805 0.67855024 0.5194081
vn 0.85943675 0.36693147 0.35599113
vn 0.6786392 0.67855036 0.28110203
vn 0.93024796 0.36693147 0
vn 0.73455375 0.6785505 0
vn 0.85943675 0.36693144 -0.3559911
vn 0.6786392 0.67855024 -0.28110197
vn 0.6577846 0.36693147 -0.65778476
vn 0.5194082 0.6785502 -0.51940805
g Sosig_Whole_0_0
f 3/3/3 2/2/2 1/1/1
f 4/4/4 2/2/2 3/3/3
f 2/2/2 5/5/5 1/1/1
f 1/1/1 5/5/5 6/6/6
f 5/5/5 7/7/7 6/6/6
f 6/6/6 7/7/7 8/8/8
f 7/7/7 9/9/9 8/8/8
f 8/8/8 9/9/9 10/10/10
f 9/9/9 11/11/11 10/10/10
f 10/10/10 11/11/11 12/12/12
f 11/11/11 13/13/13 12/12/12
f 12/12/12 13/13/13 14/14/14
f 13/13/13 15/15/15 14/14/14
f 14/14/14 15/15/15 16/16/16
f 17/17/17 4/4/4 3/3/3
f 18/18/18 4/4/4 17/17/17
f 19/19/19 18/18/18 17/17/17
f 20/20/20 18/18/18 19/19/19
f 21/21/21 20/20/20 19/19/19
f 22/22/22 20/20/20 21/21/21
f 23/23/23 22/22/22 21/21/21
f 24/24/24 22/22/22 23/23/23
f 25/25/25 24/24/24 23/23/23
f 26/26/26 24/24/24 25/25/25
f 27/27/27 26/26/26 25/25/25
f 28/28/28 26/26/26 27/27/27
f 29/29/29 28/28/28 27/27/27
f 30/30/30 28/28/28 29/29/29
f 31/31/31 30/30/30 29/29/29
f 32/32/32 30/30/30 31/31/31
f 33/33/33 32/32/32 31/31/31
f 34/34/34 32/32/32 33/33/33
f 19/19/19 35/35/35 21/21/21
f 36/36/36 35/35/35 19/19/19
f 17/17/17 36/36/36 19/19/19
f 37/37/37 36/36/36 17/17/17
f 3/3/3 37/37/37 17/17/17
f 38/38/38 37/37/37 3/3/3
f 38/38/38 39/39/39 37/37/37
f 40/40/40 39/39/39 38/38/38
f 37/37/37 41/41/41 36/36/36
f 39/39/39 41/41/41 37/37/37
f 36/36/36 42/42/42 35/35/35
f 41/41/41 42/42/42 36/36/36
f 42/42/42 43/43/43 35/35/35
f 35/35/35 43/43/43 44/44/44
f 35/35/35 44/44/44 21/21/21
f 21/21/21 44/44/44 23/23/23
f 44/44/44 45/45/45 23/23/23
f 23/23/23 45/45/45 25/25/25
f 44/44/44 46/46/46 45/45/45
f 43/43/43 46/46/46 44/44/44
f 45/45/45 47/47/47 25/25/25
f 25/25/25 47/47/47 27/27/27
f 45/45/45 48/48/48 47/47/47
f 46/46/46 48/48/48 45/45/45
f 47/47/47 49/49/49 27/27/27
f 27/27/27 49/49/49 29/29/29
f 47/47/47 50/50/50 49/49/49
f 48/48/48 50/50/50 47/47/47
f 49/49/49 51/51/51 29/29/29
f 29/29/29 51/51/51 31/31/31
f 49/49/49 52/52/52 51/51/51
f 50/50/50 52/52/52 49/49/49
f 51/51/51 53/53/53 31/31/31
f 31/31/31 53/53/53 33/33/33
f 51/51/51 54/54/54 53/53/53
f 52/52/52 54/54/54 51/51/51
f 57/57/57 56/56/56 55/55/55
f 58/58/58 56/56/56 57/57/57
f 56/56/56 59/59/59 55/55/55
f 55/55/55 59/59/59 60/60/60
f 59/59/59 61/61/61 60/60/60
f 59/59/59 56/56/56 61/61/61
f 60/60/60 61/61/61 62/62/62
f 61/61/61 63/63/63 62/62/62
f 62/62/62 63/63/63 64/64/64
f 63/63/63 65/65/65 64/64/64
f 63/63/63 61/61/61 65/65/65
f 64/64/64 65/65/65 66/66/66
f 65/65/65 67/67/67 66/66/66
f 66/66/66 67/67/67 68/68/68
f 67/67/67 69/69/69 68/68/68
f 67/67/67 65/65/65 69/69/69
f 68/68/68 69/69/69 70/70/70
f 69/69/69 71/71/71 70/70/70
f 70/70/70 71/71/71 72/72/72
f 71/71/71 73/73/73 72/72/72
f 71/71/71 69/69/69 73/73/73
f 72/72/72 73/73/73 74/74/74
f 73/73/73 75/75/75 74/74/74
f 74/74/74 75/75/75 76/76/76
f 75/75/75 77/77/77 76/76/76
f 75/75/75 73/73/73 77/77/77
f 76/76/76 77/77/77 78/78/78
f 77/77/77 79/79/79 78/78/78
f 78/78/78 79/79/79 80/80/80
f 79/79/79 81/81/81 80/80/80
f 79/79/79 77/77/77 81/81/81
f 80/80/80 81/81/81 82/82/82
f 81/81/81 83/83/83 82/82/82
f 82/82/82 83/83/83 84/84/84
f 83/83/83 85/85/85 84/84/84
f 83/83/83 81/81/81 85/85/85
f 84/84/84 85/85/85 86/86/86
f 85/85/85 58/58/58 86/86/86
f 86/86/86 58/58/58 57/57/57
f 85/85/85 81/81/81 87/87/87
f 81/81/81 77/77/77 87/87/87
f 77/77/77 73/73/73 87/87/87
f 73/73/73 69/69/69 87/87/87
f 69/69/69 65/65/65 87/87/87
f 65/65/65 61/61/61 87/87/87
f 61/61/61 56/56/56 87/87/87
f 56/56/56 85/85/85 87/87/87
f 58/58/58 85/85/85 56/56/56
f 18/18/18 88/88/88 4/4/4
f 89/89/89 88/88/88 18/18/18
f 89/89/89 90/90/90 88/88/88
f 91/91/91 90/90/90 89/89/89
f 20/20/20 89/89/89 18/18/18
f 92/92/92 89/89/89 20/20/20
f 92/92/92 91/91/91 89/89/89
f 93/93/93 91/91/91 92/92/92
f 22/22/22 92/92/92 20/20/20
f 94/94/94 92/92/92 22/22/22
f 94/94/94 93/93/93 92/92/92
f 95/95/95 93/93/93 94/94/94
f 24/24/24 94/94/94 22/22/22
f 96/96/96 94/94/94 24/24/24
f 96/96/96 95/95/95 94/94/94
f 97/97/97 95/95/95 96/96/96
f 26/26/26 96/96/96 24/24/24
f 98/98/98 96/96/96 26/26/26
f 98/98/98 97/97/97 96/96/96
f 99/99/99 97/97/97 98/98/98
f 28/28/28 98/98/98 26/26/26
f 100/100/100 98/98/98 28/28/28
f 100/100/100 99/99/99 98/98/98
f 101/101/101 99/99/99 100/100/100
f 30/30/30 100/100/100 28/28/28
f 102/102/102 100/100/100 30/30/30
f 102/102/102 101/101/101 100/100/100
f 103/103/103 101/101/101 102/102/102
f 32/32/32 102/102/102 30/30/30
f 104/104/104 102/102/102 32/32/32
f 104/104/104 103/103/103 102/102/102
f 105/105/105 103/103/103 104/104/104
f 34/34/34 104/104/104 32/32/32
f 106/106/106 104/104/104 34/34/34
f 106/106/106 105/105/105 104/104/104
f 107/107/107 105/105/105 106/106/106
f 110/110/110 109/109/109 108/108/108
f 111/111/111 109/109/109 110/110/110
f 112/112/112 111/111/111 110/110/110
f 113/113/113 111/111/111 112/112/112
f 114/114/114 113/113/113 112/112/112
f 115/115/115 113/113/113 114/114/114
f 113/113/113 115/115/115 111/111/111
f 116/116/116 115/115/115 114/114/114
f 117/117/117 115/115/115 116/116/116
f 118/118/118 117/117/117 116/116/116
f 119/119/119 117/117/117 118/118/118
f 117/117/117 119/119/119 115/115/115
f 120/120/120 119/119/119 118/118/118
f 121/121/121 119/119/119 120/120/120
f 122/122/122 121/121/121 120/120/120
f 123/123/123 121/121/121 122/122/122
f 121/121/121 123/123/123 119/119/119
f 124/124/124 123/123/123 122/122/122
f 125/125/125 123/123/123 124/124/124
f 126/126/126 125/125/125 124/124/124
f 127/127/127 125/125/125 126/126/126
f 125/125/125 127/127/127 123/123/123
f 128/128/128 127/127/127 126/126/126
f 129/129/129 127/127/127 128/128/128
f 130/130/130 129/129/129 128/128/128
f 131/131/131 129/129/129 130/130/130
f 129/129/129 131/131/131 127/127/127
f 132/132/132 131/131/131 130/130/130
f 133/133/133 131/131/131 132/132/132
f 134/134/134 133/133/133 132/132/132
f 135/135/135 133/133/133 134/134/134
f 133/133/133 135/135/135 131/131/131
f 136/136/136 135/135/135 134/134/134
f 137/137/137 135/135/135 136/136/136
f 138/138/138 137/137/137 136/136/136
f 139/139/139 137/137/137 138/138/138
f 137/137/137 139/139/139 135/135/135
f 108/108/108 139/139/139 138/138/138
f 109/109/109 139/139/139 108/108/108
f 135/135/135 139/139/139 140/140/140
f 131/131/131 135/135/135 140/140/140
f 127/127/127 131/131/131 140/140/140
f 123/123/123 127/127/127 140/140/140
f 119/119/119 123/123/123 140/140/140
f 115/115/115 119/119/119 140/140/140
f 111/111/111 115/115/115 140/140/140
f 139/139/139 111/111/111 140/140/140
f 109/109/109 111/111/111 139/139/139
f 16/16/16 141/141/141 14/14/14
f 142/142/142 141/141/141 16/16/16
f 142/142/142 143/143/143 141/141/141
f 144/144/144 143/143/143 142/142/142
f 141/141/141 145/145/145 14/14/14
f 14/14/14 145/145/145 12/12/12
f 141/141/141 146/146/146 145/145/145
f 143/143/143 146/146/146 141/141/141
f 145/145/145 147/147/147 12/12/12
f 12/12/12 147/147/147 10/10/10
f 145/145/145 148/148/148 147/147/147
f 146/146/146 148/148/148 145/145/145
f 147/147/147 149/149/149 10/10/10
f 10/10/10 149/149/149 8/8/8
f 147/147/147 150/150/150 149/149/149
f 148/148/148 150/150/150 147/147/147
f 149/149/149 151/151/151 8/8/8
f 8/8/8 151/151/151 6/6/6
f 149/149/149 152/152/152 151/151/151
f 150/150/150 152/152/152 149/149/149
f 151/151/151 153/153/153 6/6/6
f 6/6/6 153/153/153 1/1/1
f 151/151/151 154/154/154 153/153/153
f 152/152/152 154/154/154 151/151/151
f 153/153/153 38/38/38 1/1/1
f 1/1/1 38/38/38 3/3/3
f 153/153/153 40/40/40 38/38/38
f 154/154/154 40/40/40 153/153/153
f 13/13/13 155/155/155 15/15/15
f 156/156/156 155/155/155 13/13/13
f 156/156/156 157/157/157 155/155/155
f 158/158/158 157/157/157 156/156/156
f 11/11/11 156/156/156 13/13/13
f 159/159/159 156/156/156 11/11/11
f 159/159/159 158/158/158 156/156/156
f 160/160/160 158/158/158 159/159/159
f 9/9/9 159/159/159 11/11/11
f 161/161/161 159/159/159 9/9/9
f 161/161/161 160/160/160 159/159/159
f 162/162/162 160/160/160 161/161/161
f 7/7/7 161/161/161 9/9/9
f 163/163/163 161/161/161 7/7/7
f 163/163/163 162/162/162 161/161/161
f 164/164/164 162/162/162 163/163/163
f 5/5/5 163/163/163 7/7/7
f 165/165/165 163/163/163 5/5/5
f 165/165/165 164/164/164 163/163/163
f 166/166/166 164/164/164 165/165/165
f 2/2/2 165/165/165 5/5/5
f 167/167/167 165/165/165 2/2/2
f 167/167/167 166/166/166 165/165/165
f 168/168/168 166/166/166 167/167/167
f 4/4/4 167/167/167 2/2/2
f 88/88/88 167/167/167 4/4/4
f 88/88/88 168/168/168 167/167/167
f 90/90/90 168/168/168 88/88/88
